# AST/ASF file generated using VICON BodyLanguage
# -----------------------------------------------
:version 1.10
:name VICON
:units
  mass 1.0
  length 0.45
  angle deg
:documentation
   .ast/.asf automatically generated from VICON data using
   VICON BodyBuilder and BodyLanguage model FoxedUp or BRILLIANT.MOD
:root
   order TX TY TZ RX RY RZ
   axis XYZ
   position 0 0 0  
   orientation 0 0 0 
:bonedata
  begin
     id 1 
     name lhipjoint
     direction 0.646657 -0.683706 0.338203 
     length 2.4948 
     axis 0 0 0  XYZ
  end
  begin
     id 2 
     name lfemur
     direction 0.34202 -0.939693 0  
     length 6.79491  
     axis 0 0 20  XYZ
    dof rx ry rz
    limits (-160.0 20.0)
           (-70.0 70.0)
           (-60.0 70.0)
  end
  begin
     id 3 
     name ltibia
     direction 0.34202 -0.939693 0   
     length 7.56807   
     axis 0 0 20   XYZ
    dof rx
    limits (-10.0 170.0)
  end
  begin
     id 4 
     name lfoot
     direction 0.0679796 -0.186772 0.980048   
     length 2.53018   
     axis -90 7.62852e-016 20   XYZ
    dof rx rz
    limits (-45.0 90.0)
           (-70.0 20.0)
  end
  begin
     id 5 
     name ltoes
     direction 1.53625e-011 -4.21881e-011 1   
     length 1.26912   
     axis -90 7.62852e-016 20   XYZ
    dof rx
    limits (-90.0 20.0)
  end
  begin
     id 6 
     name rhipjoint
     direction -0.618868 -0.704065 0.348274   
     length 2.42265  
     axis 0 0 0  XYZ 
  end
  begin
     id 7 
     name rfemur
     direction -0.34202 -0.939693 0   
     length 6.73814   
     axis 0 0 -20   XYZ
    dof rx ry rz
    limits (-160.0 20.0)
           (-70.0 70.0)
           (-70.0 60.0)
  end
  begin
     id 8 
     name rtibia
     direction -0.34202 -0.939693 0   
     length 7.66799   
     axis 0 0 -20   XYZ
    dof rx
    limits (-10.0 170.0)
 end
 begin
     id 9 
     name rfoot
     direction -0.0727352 -0.199838 0.977125   
     length 2.57224  
     axis -90 -7.62852e-016 -20   XYZ
    dof rx rz
    limits (-45.0 90.0)
           (-20.0 70.0)
  end
  begin
     id 10 
     name rtoes
     direction -1.53501e-011 -4.21858e-011 1   
     length 1.28858   
     axis -90 -7.62852e-016 -20   XYZ
    dof rx
    limits (-90.0 20.0)
  end
  begin
     id 11 
     name lowerback
     direction -0.0172471 0.995767 -0.0902851   
     length 2.20206   
     axis 0 0 0   XYZ
    dof rx ry rz
    limits (-20.0 45.0)
           (-30.0 30.0)
           (-30.0 30.0)
  end
  begin
     id 12 
     name upperback
     direction -0.000110737 0.999714 0.0239043   
     length 2.19523   
     axis 0 0 0   XYZ
    dof rx ry rz
    limits (-20.0 45.0)
           (-30.0 30.0)
           (-30.0 30.0)
  end
  begin
     id 13 
     name thorax
     direction 0.00704869 0.997783 0.0661741   
     length 2.21977   
     axis 0 0 0   XYZ
    dof rx ry rz
    limits (-20.0 45.0)
           (-30.0 30.0)
           (-30.0 30.0)
  end
  begin
     id 14 
     name lowerneck
     direction -0.00407501 0.995527 0.0943846   
     length 1.83142   
     axis 0 0 0   XYZ
    dof rx ry rz
    limits (-20.0 45.0)
           (-30.0 30.0)
           (-30.0 30.0)
  end
  begin
     id 15 
     name upperneck
     direction 0.0640586 0.986486 -0.150807   
     length 1.84616   
     axis 0 0 0   XYZ
    dof rx ry rz
    limits (-20.0 45.0)
           (-30.0 30.0)
           (-30.0 30.0)
  end
  begin
     id 16
     name head
     direction 0.0188017 0.99791 -0.0618239  
     length 1.85932  
     axis 0 0 0   XYZ
    dof rx ry rz
    limits (-20.0 45.0)
           (-30.0 30.0)
           (-30.0 30.0)
  end
  begin
     id 17 
     name lclavicle
     direction 0.976074 0.206905 0.066852  
     length 3.81043  
     axis 0 0 0   XYZ
    dof ry rz
    limits (-20.0 10.0)
           (0.0 20.0)
  end
  begin
     id 18 
     name lhumerus
     direction 1 -4.48971e-011 1.86916e-027   
     length 5.37587   
     axis 180 -30 -90   XYZ
    dof rx ry rz
    limits (-60.0 90.0)
           (-90.0 90.0)
           (-90.0 90.0)
  end
  begin
     id 19
     name lradius
     direction 1 -4.48968e-011 1.69187e-027   
     length 3.35977   
     axis 180 -30 -90   XYZ
    dof rx
    limits (-10.0 170.0)
  end
  begin
     id 20
     name lwrist
     direction 1 -4.48968e-011 5.8978e-027   
     length 1.67988   
     axis -3.27506e-015 90 90   XYZ
    dof ry
    limits (-180.0 0.0)
 end
  begin
     id 21 
     name lhand
     direction 1 -4.49028e-011 1.18071e-026   
     length 0.561859   
     axis -7.52654e-015 90 90   XYZ
    dof rx rz
    limits (-90.0 90.0)
           (-45.0 45.0)
  end
  begin
     id 22 
     name lfingers
     direction 1 -4.48927e-011 2.35758e-026   
     length 0.452985   
     axis -1.50534e-014 90 90   XYZ
    dof rx
    limits (0.0 90.0)
  end
  begin
     id 23
     name lthumb
     direction 0.707107 -6.34898e-011 0.707107   
     length 0.650399   
     axis -90 45 5.69224e-014   XYZ
    dof rx rz
    limits (-45.0 45.0)
           (-45.0 45.0)
  end
  begin
     id 24 
     name rclavicle
     direction -0.988403 0.151789 0.00439714   
     length 3.6942  
     axis 0 0 0   XYZ 
    dof ry rz
    limits (-10.0 20.0)
           (-20.0 0.0)
  end
  begin
     id 25 
     name rhumerus
     direction -1 -4.48978e-011 1.62495e-027  
     length 5.22819   
     axis 180 30 90   XYZ
    dof rx ry rz
    limits (-90.0 60.0)
           (-90.0 90.0)
           (-90.0 90.0)
  end
  begin
     id 26 
     name rradius
     direction -1 -4.48961e-011 3.47796e-027   
     length 3.40764   
     axis 180 30 90   XYZ
    dof rx
    limits (-10.0 170.0)
  end
  begin
     id 27 
     name rwrist
     direction -1 -4.48949e-011 5.89602e-027   
     length 1.70382   
     axis -3.27506e-015 -90 -90   XYZ
    dof ry
    limits (-180.0 0.0)
  end
  begin
     id 28
     name rhand
     direction -1 -4.48977e-011 1.17973e-026   
     length 0.583255   
     axis -7.52654e-015 -90 -90   XYZ
    dof rx rz
    limits (-90.0 90.0)
           (-45.0 45.0)
  end
  begin
     id 29
     name rfingers
     direction -1 -4.49099e-011 2.36408e-026   
     length 0.470235   
     axis -1.50534e-014 -90 -90   XYZ
    dof rx
    limits (0.0 90.0)
  end
  begin
     id 30
     name rthumb
     direction -0.707107 -6.35011e-011 0.707107   
     length 0.675167   
     axis -90 -45 -5.69224e-014   XYZ
    dof rx rz
    limits (-45.0 45.0)
           (-45.0 45.0)
  end
:hierarchy
  begin
    root lhipjoint rhipjoint lowerback
    lhipjoint lfemur
    lfemur ltibia
    ltibia lfoot
    lfoot ltoes
    rhipjoint rfemur
    rfemur rtibia
    rtibia rfoot
    rfoot rtoes
    lowerback upperback
    upperback thorax
    thorax lowerneck lclavicle rclavicle
    lowerneck upperneck
    upperneck head
    lclavicle lhumerus
    lhumerus lradius
    lradius lwrist
    lwrist lhand lthumb
    lhand lfingers
    rclavicle rhumerus
    rhumerus rradius
    rradius rwrist
    rwrist rhand rthumb
    rhand rfingers
  end

#!OML:ASF G:\JayActor3\Patient Classification 1\Patient 1\Session 2\male.ASF
:FULLY-SPECIFIED
:DEGREES
350
root 36.8391 16.6457 -6.15316 386.731 -74.4969 -389.607
lowerback 0.277247 3.29082 7.5782
upperback -2.86171 4.51472 0.511032
thorax -2.58224 2.06734 -3.79319
lowerneck -7.01946 3.55509 -0.344555
upperneck 8.60328 4.36464 4.39081
head 3.9629 2.34283 1.77215
rclavicle -1.00486e-013 -1.11319e-014
rhumerus -20.2765 2.92219 -80.1898
rradius 37.7162
rwrist -8.32561
rhand -20.1111 4.9568
rfingers 7.12502
rthumb 6.23256 -24.9315
lclavicle -1.00486e-013 -1.11319e-014
lhumerus -52.8596 16.6039 59.8222
lradius 18.049
lwrist 6.01322
lhand -18.7322 17.6592
lfingers 7.12502
lthumb 7.56364 47.504
rfemur 16.6227 -12.3186 30.6878
rtibia 14.2024
rfoot -13.2557 1.26463
rtoes -0.556091
lfemur -26.218 -3.15706 -14.8863
ltibia 25.8077
lfoot -10.6549 -5.47704
ltoes -15.1478
351
root 36.7347 16.6269 -6.14542 387.414 -74.6334 -390.229
lowerback 0.308783 3.22455 7.56328
upperback -2.83683 4.42803 0.487983
thorax -2.58364 2.0251 -3.80954
lowerneck -6.97791 2.94068 -0.885499
upperneck 8.37099 3.57789 4.67999
head 3.88191 1.94706 1.91778
rclavicle 3.46879e-014 7.95139e-016
rhumerus -20.1872 2.92288 -80.5332
rradius 38.2037
rwrist -8.59738
rhand -20.5509 5.19437
rfingers 7.12502
rthumb 5.80794 -24.706
lclavicle 3.46879e-014 7.95139e-016
lhumerus -53.228 17.3366 59.2298
lradius 17.3202
lwrist 4.78562
lhand -18.4869 17.5584
lfingers 7.12502
lthumb 7.80038 47.3945
rfemur 17.1059 -12.27 30.7021
rtibia 13.9144
rfoot -13.0562 1.49907
rtoes -0.653529
lfemur -26.1094 -3.12633 -14.7136
ltibia 26.197
lfoot -10.3194 -5.51784
ltoes -14.7699
352
root 36.6279 16.6145 -6.13727 387.96 -74.7934 -390.716
lowerback 0.342862 3.15386 7.49693
upperback -2.81422 4.33474 0.449473
thorax -2.59186 1.98041 -3.81356
lowerneck -6.91817 2.32759 -1.39061
upperneck 8.09754 2.79226 4.9534
head 3.79205 1.55179 2.0527
rclavicle -1.6201e-014 1.90833e-014
rhumerus -20.1664 2.89748 -80.9221
rradius 38.621
rwrist -8.84197
rhand -21.0308 5.43755
rfingers 7.12502
rthumb 5.34463 -24.4751
lclavicle -1.6201e-014 1.90833e-014
lhumerus -53.619 18.194 58.4922
lradius 16.5641
lwrist 3.38554
lhand -18.2282 17.4628
lfingers 7.12502
lthumb 8.05009 47.2895
rfemur 17.6007 -12.1137 30.7186
rtibia 13.6038
rfoot -12.8211 1.54967
rtoes -0.806709
lfemur -26.007 -3.03776 -14.595
ltibia 26.6275
lfoot -9.87453 -5.50901
ltoes -14.3765
353
root 36.5183 16.6088 -6.12869 388.336 -74.9791 -391.037
lowerback 0.378351 3.0774 7.37519
upperback -2.79804 4.2329 0.393787
thorax -2.6108 1.9321 -3.80482
lowerneck -6.82715 1.72143 -1.87293
upperneck 7.78612 2.01536 5.22232
head 3.69068 1.1607 2.18319
rclavicle 8.36883e-014 3.81667e-014
rhumerus -20.2271 2.84405 -81.3594
rradius 38.9647
rwrist -9.06333
rhand -21.56 5.67427
rfingers 7.12502
rthumb 4.83359 -24.2506
lclavicle 8.36883e-014 3.81667e-014
lhumerus -54.0589 19.1713 57.5951
lradius 15.7991
lwrist 1.81737
lhand -17.9742 17.3996
lfingers 7.12502
lthumb 8.29522 47.2167
rfemur 18.0963 -11.8457 30.7342
rtibia 13.2951
rfoot -12.5537 1.40799
rtoes -1.02549
lfemur -25.9021 -2.88928 -14.5371
ltibia 27.0424
lfoot -9.36685 -5.51128
ltoes -13.9935
354
root 36.4058 16.6093 -6.11946 388.511 -75.187 -391.167
lowerback 0.410537 2.99145 7.19776
upperback -2.77956 4.11674 0.325271
thorax -2.62951 1.87799 -3.77788
lowerneck -6.70792 1.13066 -2.3624
upperneck 7.42684 1.26055 5.50323
head 3.57392 0.780102 2.32102
rclavicle -4.30369e-014 1.59028e-014
rhumerus -20.3595 2.77867 -81.8374
rradius 39.2277
rwrist -9.27075
rhand -22.1189 5.87961
rfingers 7.12502
rthumb 4.29392 -24.0569
lclavicle -4.30369e-014 1.59028e-014
lhumerus -54.561 20.2626 56.5508
lradius 15.0513
lwrist 0.110758
lhand -17.7186 17.3769
lfingers 7.12502
lthumb 8.54194 47.1842
rfemur 18.578 -11.4787 30.7439
rtibia 13.0308
rfoot -12.265 1.08065
rtoes -1.31151
lfemur -25.7734 -2.70671 -14.5371
ltibia 27.3985
lfoot -8.83122 -5.57065
ltoes -13.6264
355
root 36.2904 16.615 -6.10965 388.544 -75.4182 -391.165
lowerback 0.430325 2.90039 6.98103
upperback -2.75574 3.99151 0.249354
thorax -2.63819 1.82075 -3.73549
lowerneck -6.57428 0.558087 -2.87466
upperneck 7.02727 0.532397 5.8023
head 3.44717 0.412295 2.47217
rclavicle 1.64991e-014 6.36111e-015
rhumerus -20.559 2.71743 -82.3473
rradius 39.4047
rwrist -9.45934
rhand -22.6938 6.06437
rfingers 7.12502
rthumb 3.73884 -23.8826
lclavicle 1.64991e-014 6.36111e-015
lhumerus -55.1238 21.4293 55.4026
lradius 14.3465
lwrist -1.67529
lhand -17.4739 17.4145
lfingers 7.12502
lthumb 8.77803 47.2119
rfemur 19.016 -11.023 30.7564
rtibia 12.8617
rfoot -11.9636 0.600899
rtoes -1.58842
lfemur -25.5988 -2.51298 -14.572
ltibia 27.6738
lfoot -8.30525 -5.69821
ltoes -13.2736
356
root 36.1724 16.6248 -6.09921 388.548 -75.6795 -391.132
lowerback 0.427023 2.8132 6.74924
upperback -2.73149 3.86899 0.169442
thorax -2.63321 1.7656 -3.68726
lowerneck -6.43382 0.00665131 -3.41102
upperneck 6.59603 -0.165624 6.12196
head 3.31505 0.0592472 2.63845
rclavicle -2.08724e-015 -2.3059e-014
rhumerus -20.825 2.67774 -82.8816
rradius 39.4961
rwrist -9.64135
rhand -23.2607 6.22047
rfingers 7.12502
rthumb 3.19136 -23.7354
lclavicle -2.08724e-015 -2.3059e-014
lhumerus -55.7413 22.6236 54.1924
lradius 13.7048
lwrist -3.46609
lhand -17.2278 17.4938
lfingers 7.12502
lthumb 9.01549 47.2812
rfemur 19.3767 -10.4971 30.7764
rtibia 12.8268
rfoot -11.645 0.0257201
rtoes -1.80474
lfemur -25.3665 -2.31388 -14.6186
ltibia 27.8631
lfoot -7.79638 -5.88424
ltoes -12.8943
357
root 36.0518 16.638 -6.08798 388.655 -75.9745 -391.183
lowerback 0.382567 2.74025 6.53106
upperback -2.71162 3.7624 0.0881225
thorax -2.60645 1.71854 -3.64583
lowerneck -6.30483 -0.521243 -3.96569
upperneck 6.14816 -0.831173 6.46229
head 3.18617 -0.277318 2.81962
rclavicle -1.35174e-014 7.15625e-015
rhumerus -21.1528 2.68058 -83.4315
rradius 39.5029
rwrist -9.81707
rhand -23.7801 6.34397
rfingers 7.12502
rthumb 2.68972 -23.6188
lclavicle -1.35174e-014 7.15625e-015
lhumerus -56.3798 23.7687 53.0102
lradius 13.1477
lwrist -5.1456
lhand -16.9763 17.6095
lfingers 7.12502
lthumb 9.25818 47.3862
rfemur 19.6322 -9.9236 30.8094
rtibia 12.9458
rfoot -11.2991 -0.586863
rtoes -1.93649
lfemur -25.075 -2.11516 -14.6526
ltibia 27.9733
lfoot -7.29247 -6.0921
ltoes -12.4446
358
root 35.9285 16.6543 -6.07579 388.981 -76.3091 -391.421
lowerback 0.291775 2.68678 6.34512
upperback -2.70942 3.67935 0.00865244
thorax -2.56731 1.68219 -3.61864
lowerneck -6.20047 -1.02134 -4.5067
upperneck 5.71186 -1.46023 6.79568
head 3.07115 -0.595163 3.00073
rclavicle 8.23962e-014 1.74931e-014
rhumerus -21.5406 2.74591 -83.9937
rradius 39.42
rwrist -9.98003
rhand -24.2124 6.43799
rfingers 7.12502
rthumb 2.2722 -23.5297
lclavicle 8.23962e-014 1.74931e-014
lhumerus -57.0197 24.8053 51.9241
lradius 12.6855
lwrist -6.6212
lhand -16.7124 17.7434
lfingers 7.12502
lthumb 9.51283 47.5087
rfemur 19.7693 -9.31597 30.8547
rtibia 13.211
rfoot -10.9081 -1.18175
rtoes -1.90135
lfemur -24.7361 -1.92049 -14.6577
ltibia 28.0158
lfoot -6.77919 -6.30903
ltoes -11.8162
359
root 35.8026 16.6736 -6.06229 389.605 -76.6882 -391.915
lowerback 0.157995 2.65597 6.20077
upperback -2.73734 3.62496 -0.0677238
thorax -2.52987 1.65811 -3.61037
lowerneck -6.12129 -1.4877 -5.01156
upperneck 5.31153 -2.04685 7.10814
head 2.97609 -0.891106 3.1727
rclavicle -1.20265e-014 -1.11319e-014
rhumerus -21.9943 2.88461 -84.5666
rradius 39.2505
rwrist -10.1174
rhand -24.5228 6.49977
rfingers 7.12502
rthumb 1.97242 -23.4709
lclavicle -1.20265e-014 -1.11319e-014
lhumerus -57.6276 25.6528 51.0364
lradius 12.3331
lwrist -7.7697
lhand -16.4256 17.8921
lfingers 7.12502
lthumb 9.78955 47.6446
rfemur 19.7965 -8.68571 30.9041
rtibia 13.5949
rfoot -10.4515 -1.7277
rtoes -1.68315
lfemur -24.3611 -1.73898 -14.6288
ltibia 28.0022
lfoot -6.26033 -6.54518
ltoes -10.862
